<?xml version="1.0" encoding="utf-8"?>
<!-- Generator: Adobe Illustrator 16.2.1, SVG Export Plug-In . SVG Version: 6.00 Build 0)  -->
<!DOCTYPE svg PUBLIC "-//W3C//DTD SVG 1.1//EN" "http://www.w3.org/Graphics/SVG/1.1/DTD/svg11.dtd">
<svg version="1.1" id="Layer_1" xmlns="http://www.w3.org/2000/svg" xmlns:xlink="http://www.w3.org/1999/xlink" x="0px" y="0px"
	 width="171.5px" height="114.25px" viewBox="0 0 171.5 114.25" enable-background="new 0 0 171.5 114.25" xml:space="preserve">
<g>
	<circle fill="#D87F28" cx="115.058" cy="27.333" r="17.445"/>
	<circle fill="#C65A28" cx="152.198" cy="18.328" r="17.445"/>
	<circle fill="#22AC91" cx="131.939" cy="50.967" r="17.445"/>
	<circle fill="#DAB528" cx="90.116" cy="38.348" r="17.445"/>
	<circle fill="#548DCA" cx="101.55" cy="54.344" r="17.445"/>
	<g>
		<path opacity="0.3" fill="#FFFFFF" d="M37.882,39.244c-1.268,0-2.815,0.906-3.436,2.011l-5.51,9.819
			c-0.622,1.105-1.128,3.052-1.128,4.321v3.459c0,1.271,1.038,2.31,2.306,2.31h31.996c1.268,0,2.306-1.039,2.306-2.31V41.55
			c0-1.269-1.038-2.306-2.306-2.306H37.882z"/>
		<path fill="#FFFFFF" d="M67.301,35.206H37.306c-2.537,0-4.907,1.946-6.346,4.038L20.614,56.782C19.177,58.875,18,62.663,18,65.199
			v9.807h36.61l10.384,5.19h6.922V39.818C71.916,37.282,69.837,35.206,67.301,35.206z M64.416,58.854c0,1.271-1.038,2.31-2.306,2.31
			H30.113c-1.269,0-2.306-1.039-2.306-2.31v-3.459c0-1.269,0.507-3.215,1.128-4.321l5.51-9.819c0.621-1.105,2.168-2.011,3.436-2.011
			h24.228c1.268,0,2.306,1.038,2.306,2.306V58.854z"/>
		<rect x="74.222" y="62.315" fill="#FFFFFF" width="77.871" height="17.304"/>
		<path fill="#FFFFFF" d="M49.995,90.004c4.135,0,7.5,3.362,7.5,7.5c0,4.134-3.364,7.497-7.5,7.497
			c-4.135,0-7.499-3.363-7.499-7.497C42.496,93.366,45.86,90.004,49.995,90.004 M49.995,82.506c-8.283,0-14.998,6.713-14.998,14.998
			c0,8.281,6.714,14.996,14.998,14.996c8.284,0,14.999-6.715,14.999-14.996C64.994,89.219,58.279,82.506,49.995,82.506
			L49.995,82.506z"/>
		<path opacity="0.5" fill="#FFFFFF" d="M18,75.006v14.42c0,2.539,5.769,8.078,11.537,8.078h3.96c0-9.113,7.387-16.5,16.498-16.5
			c9.112,0,16.498,7.387,16.498,16.5h5.423V75.006H18z"/>
		<path fill="#FFFFFF" d="M129.598,90.004c4.135,0,7.499,3.362,7.499,7.5c0,4.134-3.364,7.497-7.499,7.497
			c-4.136,0-7.498-3.363-7.498-7.497C122.1,93.366,125.462,90.004,129.598,90.004 M129.598,82.506
			c-8.283,0-14.999,6.713-14.999,14.998c0,8.281,6.716,14.996,14.999,14.996c8.282,0,14.998-6.715,14.998-14.996
			C144.596,89.219,137.88,82.506,129.598,82.506L129.598,82.506z"/>
		<path opacity="0.3" fill="#FFFFFF" d="M90.374,87.119l-9.807,10.385h32.535c0-3.938,1.379-7.549,3.678-10.385H90.374z"/>
		<path opacity="0.5" fill="#FFFFFF" d="M74.222,79.619v17.885h6.345l9.807-10.385h26.405c3.027-3.73,7.642-6.115,12.818-6.115
			c5.176,0,9.792,2.385,12.817,6.115h9.678v-7.5H74.222z"/>
	</g>
</g>
</svg>
